<svg width="257" height="67" viewBox="0 0 257 67" fill="none" xmlns="http://www.w3.org/2000/svg">
<g clip-path="url(#clip0_0_1)">
<rect width="1440" height="7499" transform="translate(-590 -2643)" fill="white"/>
<path d="M43.709 17.6998L44.909 17.3998V4.49976H42.609C42.609 5.31309 42.389 6.09309 41.949 6.83976C41.7623 7.14642 41.549 7.39976 41.309 7.59976H40.709V3.99975H52.409V7.59976H51.809C51.5557 7.39976 51.3357 7.14642 51.149 6.83976C50.7223 6.11976 50.509 5.33976 50.509 4.49976H48.209V17.3998L49.409 17.6998V17.9998H43.709V17.6998ZM56.8043 17.6998L58.0043 17.3998V12.7998L53.9043 4.59976L52.9043 4.29975V3.99975H55.4043C56.0976 3.99975 56.651 4.14642 57.0643 4.43976C57.491 4.73309 57.8376 5.15309 58.1043 5.69976L61.0643 11.5998L64.1043 4.89976L62.6043 4.29975V3.99975H66.4043V4.29975L64.8043 4.89976L61.3043 12.5998V17.3998L62.5043 17.6998V17.9998H56.8043V17.6998ZM67.2051 17.6998L68.4051 17.3998V4.59976L67.2051 4.29975V3.99975H72.8051C75.0184 3.99975 76.6051 4.36642 77.5651 5.09976C78.5251 5.81976 79.0051 6.88642 79.0051 8.29976C79.0051 9.71309 78.5251 10.7864 77.5651 11.5198C76.6051 12.2398 75.0184 12.5998 72.8051 12.5998H71.7051V17.3998L72.9051 17.6998V17.9998H67.2051V17.6998ZM72.8051 12.0998C73.6451 12.0998 74.3184 11.7798 74.8251 11.1398C75.3451 10.4998 75.6051 9.55309 75.6051 8.29976C75.6051 7.05976 75.3451 6.11976 74.8251 5.47975C74.3184 4.82642 73.6451 4.49976 72.8051 4.49976H71.7051V12.0998H72.8051ZM80.7012 17.6998L81.9012 17.3998V4.59976L80.7012 4.29975V3.99975H91.4012V7.59976H90.8012C90.5478 7.39976 90.3278 7.14642 90.1412 6.83976C89.7145 6.11976 89.5012 5.33976 89.5012 4.49976H85.2012V10.7998H87.5012C87.5945 10.2931 87.7678 9.81976 88.0212 9.37976C88.1278 9.17976 88.2545 8.98642 88.4012 8.79976H89.0012V13.2998H88.4012C88.2545 13.1131 88.1278 12.9198 88.0212 12.7198C87.7678 12.2798 87.5945 11.8064 87.5012 11.2998H85.2012V17.4998H89.9012C89.9012 16.6598 90.1145 15.8798 90.5412 15.1598C90.7278 14.8531 90.9478 14.5998 91.2012 14.3998H91.8012V17.9998H80.7012V17.6998ZM98.4918 18.2998C97.5451 18.2998 96.6585 18.0864 95.8318 17.6598C95.4585 17.4731 95.1451 17.2531 94.8918 16.9998C94.7051 17.3064 94.4718 17.5798 94.1918 17.8198C93.9518 17.9931 93.8185 18.0864 93.7918 18.0998H93.2918V14.2998H94.0918C94.2918 14.9531 94.5718 15.5398 94.9318 16.0598C95.7451 17.2198 96.7985 17.7998 98.0918 17.7998C98.8518 17.7998 99.4585 17.5731 99.9118 17.1198C100.365 16.6664 100.592 16.0598 100.592 15.2998C100.592 14.8598 100.458 14.4664 100.192 14.1198C99.9385 13.7731 99.6185 13.4664 99.2318 13.1998C98.8451 12.9331 98.3051 12.5998 97.6118 12.1998C96.7318 11.7064 96.0185 11.2598 95.4718 10.8598C94.9251 10.4598 94.4585 9.95976 94.0718 9.35976C93.6851 8.74642 93.4918 8.02642 93.4918 7.19976C93.4918 6.54642 93.6718 5.95976 94.0318 5.43976C94.4051 4.90642 94.9585 4.48642 95.6918 4.17975C96.4251 3.85976 97.3251 3.69976 98.3918 3.69976C99.1651 3.69976 99.9385 3.91976 100.712 4.35976C101.005 4.51976 101.298 4.73309 101.592 4.99976C101.818 4.65309 102.052 4.37975 102.292 4.17975C102.532 4.00642 102.665 3.91309 102.692 3.89976H103.192V7.69975H102.392C102.218 7.05976 101.958 6.47976 101.612 5.95975C101.292 5.45309 100.892 5.03309 100.412 4.69976C99.9451 4.36642 99.4051 4.19975 98.7918 4.19975C98.2718 4.19975 97.8251 4.40642 97.4518 4.81976C97.0785 5.23309 96.8918 5.75976 96.8918 6.39976C96.8918 6.89309 97.0318 7.33976 97.3118 7.73976C97.6051 8.12642 97.9585 8.46642 98.3718 8.75976C98.7985 9.05309 99.3718 9.40642 100.092 9.81976C100.932 10.2998 101.612 10.7264 102.132 11.0998C102.652 11.4731 103.092 11.9398 103.452 12.4998C103.812 13.0464 103.992 13.6798 103.992 14.3998C103.992 15.1198 103.785 15.7798 103.372 16.3798C102.958 16.9664 102.338 17.4331 101.512 17.7798C100.685 18.1264 99.6785 18.2998 98.4918 18.2998ZM117.492 18.2998C116.185 18.2998 115.038 18.0198 114.052 17.4598C113.078 16.8864 112.325 16.0531 111.792 14.9598C111.258 13.8664 110.992 12.5464 110.992 10.9998C110.992 9.45309 111.258 8.13309 111.792 7.03976C112.325 5.94642 113.078 5.11975 114.052 4.55975C115.038 3.98642 116.185 3.69976 117.492 3.69976C118.798 3.69976 119.938 3.98642 120.912 4.55975C121.898 5.11975 122.658 5.94642 123.192 7.03976C123.725 8.13309 123.992 9.45309 123.992 10.9998C123.992 12.5464 123.725 13.8664 123.192 14.9598C122.658 16.0531 121.898 16.8864 120.912 17.4598C119.938 18.0198 118.798 18.2998 117.492 18.2998ZM117.492 17.8998C118.012 17.8998 118.492 17.6798 118.932 17.2398C119.385 16.7998 119.758 16.0664 120.052 15.0398C120.345 14.0131 120.492 12.6664 120.492 10.9998C120.492 9.33309 120.345 7.98642 120.052 6.95975C119.758 5.93309 119.385 5.19976 118.932 4.75975C118.492 4.31975 118.012 4.09975 117.492 4.09975C116.972 4.09975 116.485 4.31975 116.032 4.75975C115.592 5.19976 115.225 5.93309 114.932 6.95975C114.638 7.98642 114.492 9.33309 114.492 10.9998C114.492 12.6664 114.638 14.0131 114.932 15.0398C115.225 16.0664 115.592 16.7998 116.032 17.2398C116.485 17.6798 116.972 17.8998 117.492 17.8998ZM125.896 17.6998L127.096 17.3998V4.59976L125.896 4.29975V3.99975H136.596V7.59976H135.996C135.743 7.39976 135.523 7.14642 135.336 6.83976C134.91 6.11976 134.696 5.33976 134.696 4.49976H130.396V10.7998H132.696C132.79 10.2931 132.963 9.81976 133.216 9.37976C133.323 9.17976 133.45 8.98642 133.596 8.79976H134.196V13.2998H133.596C133.45 13.1131 133.323 12.9198 133.216 12.7198C132.963 12.2798 132.79 11.8064 132.696 11.2998H130.396V17.3998L131.596 17.6998V17.9998H125.896V17.6998ZM143.709 17.6998L144.909 17.3998V4.59976L143.709 4.29975V3.99975H149.009C151.276 3.99975 152.909 4.34642 153.909 5.03976C154.909 5.71976 155.409 6.67309 155.409 7.89976C155.409 8.72642 155.189 9.39976 154.749 9.91976C154.309 10.4264 153.742 10.8064 153.049 11.0598C152.316 11.3398 151.536 11.4864 150.709 11.4998V11.5998C151.202 11.6264 151.636 11.6998 152.009 11.8198C152.942 12.1131 153.576 12.6398 153.909 13.3998L155.709 17.3998L156.709 17.6998V17.9998H153.909C152.816 17.9998 152.016 17.4331 151.509 16.2998L149.509 11.7998H148.209V17.3998L149.609 17.6998V17.9998H143.709V17.6998ZM149.009 11.2998C149.942 11.2998 150.676 11.0064 151.209 10.4198C151.742 9.83309 152.009 8.99309 152.009 7.89976C152.009 6.80642 151.742 5.96642 151.209 5.37976C150.676 4.79309 149.942 4.49976 149.009 4.49976H148.209V11.2998H149.009ZM157.713 17.6998L158.913 17.3998V4.59976L157.713 4.29975V3.99975H168.413V7.59976H167.813C167.56 7.39976 167.34 7.14642 167.153 6.83976C166.726 6.11976 166.513 5.33976 166.513 4.49976H162.213V10.7998H164.513C164.606 10.2931 164.78 9.81976 165.033 9.37976C165.14 9.17976 165.266 8.98642 165.413 8.79976H166.013V13.2998H165.413C165.266 13.1131 165.14 12.9198 165.033 12.7198C164.78 12.2798 164.606 11.8064 164.513 11.2998H162.213V17.4998H166.913C166.913 16.6598 167.126 15.8798 167.553 15.1598C167.74 14.8531 167.96 14.5998 168.213 14.3998H168.813V17.9998H157.713V17.6998ZM170.604 17.6998L171.804 17.3998V4.59976L170.604 4.29975V3.99975H176.204C178.417 3.99975 180.004 4.36642 180.964 5.09976C181.924 5.81976 182.404 6.88642 182.404 8.29976C182.404 9.71309 181.924 10.7864 180.964 11.5198C180.004 12.2398 178.417 12.5998 176.204 12.5998H175.104V17.3998L176.304 17.6998V17.9998H170.604V17.6998ZM176.204 12.0998C177.044 12.0998 177.717 11.7798 178.224 11.1398C178.744 10.4998 179.004 9.55309 179.004 8.29976C179.004 7.05976 178.744 6.11976 178.224 5.47975C177.717 4.82642 177.044 4.49976 176.204 4.49976H175.104V12.0998H176.204ZM181.293 17.6998L182.893 17.0998L188.393 3.79976H188.993L194.693 17.3998L195.693 17.6998V17.9998H193.293C192.6 17.9998 192.033 17.8464 191.593 17.5398C191.153 17.2198 190.827 16.8064 190.613 16.2998L189.593 13.8998H184.813L183.493 17.0998L184.993 17.6998V17.9998H181.293V17.6998ZM185.013 13.3998H189.393L187.193 8.13976L185.013 13.3998ZM196.287 17.9998V17.6998L197.487 17.3998V4.59976L196.287 4.29975V3.99975H201.987V4.29975L200.787 4.59976V17.3998L201.987 17.6998V17.9998H196.287ZM203.787 17.6998L204.987 17.3998V4.59976L203.787 4.29975V3.99975H209.087C211.354 3.99975 212.987 4.34642 213.987 5.03976C214.987 5.71976 215.487 6.67309 215.487 7.89976C215.487 8.72642 215.267 9.39976 214.827 9.91976C214.387 10.4264 213.82 10.8064 213.127 11.0598C212.394 11.3398 211.614 11.4864 210.787 11.4998V11.5998C211.28 11.6264 211.714 11.6998 212.087 11.8198C213.02 12.1131 213.654 12.6398 213.987 13.3998L215.787 17.3998L216.787 17.6998V17.9998H213.987C212.894 17.9998 212.094 17.4331 211.587 16.2998L209.587 11.7998H208.287V17.3998L209.687 17.6998V17.9998H203.787V17.6998ZM209.087 11.2998C210.02 11.2998 210.754 11.0064 211.287 10.4198C211.82 9.83309 212.087 8.99309 212.087 7.89976C212.087 6.80642 211.82 5.96642 211.287 5.37976C210.754 4.79309 210.02 4.49976 209.087 4.49976H208.287V11.2998H209.087Z" fill="#181818"/>
<rect x="73.0006" y="51.9998" width="32" height="1.54334" rx="0.771672" fill="#E3B873"/>
<rect x="155.001" y="51.9998" width="32" height="1.54334" rx="0.771672" fill="#E3B873"/>
<path d="M140.406 60.1434C139.824 59.7342 139.153 59.5144 138.475 59.4785C135.92 57.8054 134.246 56.5495 133.269 55.5724L130.268 52.5707L132.089 50.5318C132.434 50.7267 132.805 50.8551 133.176 50.908C133.456 50.9546 133.642 50.9546 133.829 50.9546C134.202 50.9546 134.295 50.9546 134.668 51.2811C134.482 51.4211 134.389 51.6543 134.389 51.8875C134.389 52.1207 134.482 52.4006 134.668 52.5871L136.301 54.2197C136.534 54.4995 136.907 54.6394 137.281 54.6394C137.654 54.6394 138.027 54.4995 138.26 54.173L141.572 50.8613C141.852 50.6281 141.991 50.255 141.991 49.8818C141.991 49.5087 141.852 49.1822 141.572 48.9023L139.939 47.2698C139.753 47.0832 139.519 46.9899 139.286 46.9899C139.053 46.9899 138.82 47.1299 138.633 47.2698C138.26 46.9433 138.26 46.85 138.26 46.4768C138.26 46.2903 138.26 46.057 138.167 45.7772C138.073 45.1242 137.747 44.4712 137.234 43.9581L135.555 42.2789C134.575 41.2994 134.109 40.833 132.849 40.2733C130.144 39.0139 127.392 39.2472 123.381 41.0663C123.147 41.1596 123.054 41.3461 123.101 41.5794C123.147 41.8126 123.334 41.9525 123.567 41.9525H124.174C126.226 41.9525 127.299 41.9525 129.164 43.8182C129.981 44.6352 130.005 45.8878 129.273 46.8094C129.174 46.8243 129.099 46.8686 129.025 46.9433L126.953 49.2559L125.386 47.6896C123.665 45.9682 122.454 44.3395 121.522 42.5259C121.473 41.6082 121.105 40.7496 120.442 40.0868C119.649 39.2939 118.53 38.9207 117.41 39.014C117.271 39.0607 117.131 39.154 117.084 39.2473C116.991 39.3872 116.991 39.5738 117.084 39.7137L118.39 42.0459C118.11 42.6522 117.457 43.0254 116.804 42.9788L115.451 40.7398C115.405 40.5999 115.218 40.5066 115.078 40.5066C114.938 40.46 114.798 40.5532 114.705 40.6931C113.586 42.3723 114.005 44.6112 115.685 45.7772C116.263 46.1905 116.915 46.4203 117.575 46.4674C117.582 46.4705 117.589 46.4743 117.597 46.4769C119.416 47.4098 121.049 48.6225 122.774 50.3483L124.48 52.0154L114.565 63.082C114.192 63.4551 114.005 63.9682 114.005 64.4813C114.005 64.9944 114.192 65.4608 114.565 65.8339L115.218 66.487C115.591 66.8134 116.058 67 116.524 67C116.991 67 117.504 66.8135 117.877 66.4403L127.781 55.3546L130.657 58.2311C131.636 59.2097 132.894 60.9332 134.57 63.4481C134.631 64.3458 134.998 65.1839 135.648 65.8339C136.348 66.5336 137.281 66.9067 138.26 66.9067C138.4 66.9067 138.54 66.9067 138.633 66.9067C138.773 66.9067 138.913 66.8134 139.006 66.6735C139.1 66.5336 139.1 66.347 139.006 66.2071L137.654 63.9216C137.98 63.3153 138.587 62.9421 139.286 62.9887L140.592 65.2276C140.639 65.3675 140.825 65.4608 140.965 65.4608C141.152 65.4142 141.292 65.3675 141.385 65.2276C142.505 63.5484 142.038 61.3095 140.406 60.1434ZM129.771 43.072C128.278 41.6261 127.159 41.1596 125.9 41.0197C128.558 40.1801 130.517 40.2267 132.476 41.113C133.596 41.5794 133.969 41.9526 134.948 42.9321L136.627 44.6112C137.001 44.9844 137.234 45.4508 137.281 45.9172C137.327 46.1505 137.327 46.337 137.327 46.4769C137.327 46.99 137.374 47.3631 137.933 47.9229C138.12 48.1094 138.4 48.2027 138.633 48.2027C138.913 48.2027 139.146 48.1094 139.286 47.9229L140.919 49.5554C141.012 49.6487 141.059 49.742 141.059 49.8819C141.059 50.0218 141.012 50.1151 140.919 50.2084L137.607 53.5201C137.42 53.7066 137.141 53.7066 136.954 53.5201L135.321 51.8875C135.508 51.7476 135.601 51.5144 135.555 51.2345C135.555 51.0013 135.461 50.7214 135.275 50.5349C134.715 49.9751 134.342 49.9285 133.829 49.9285C133.689 49.9285 133.502 49.9285 133.269 49.8819C132.756 49.8353 132.336 49.602 131.963 49.2289L129.958 47.2232C130.984 45.9639 130.89 44.1914 129.771 43.072ZM115.125 41.9526L116.104 43.6317C116.198 43.7717 116.338 43.865 116.478 43.865H116.711C117.784 43.9116 118.763 43.3519 119.23 42.419L119.323 42.1858C119.416 42.0459 119.416 41.9059 119.323 41.766L118.297 39.9936C118.856 40.0869 119.37 40.3667 119.789 40.7865C120.27 41.3075 120.578 41.9663 120.596 42.6741C120.587 42.71 120.582 42.7486 120.582 42.7922C120.582 43.0082 120.556 43.2189 120.508 43.422C120.332 44.0974 119.91 44.6863 119.323 45.0778C118.39 45.6841 117.131 45.6841 116.198 45.0311C115.218 44.3314 114.798 43.072 115.125 41.9526ZM123.427 49.6953C122.028 48.2494 120.629 47.13 119.136 46.2437C119.369 46.1504 119.649 46.0105 119.882 45.8705C120.582 45.4041 121.049 44.7977 121.328 44.0515C122.215 45.5441 123.334 46.9434 124.733 48.3427L126.335 49.9447L125.079 51.347L123.427 49.6953ZM117.224 65.7406C116.851 66.1138 116.244 66.1604 115.871 65.7873L115.218 65.1809C115.032 64.9944 114.938 64.7611 114.938 64.5279C114.938 64.248 115.032 64.0148 115.265 63.7816L115.529 63.4861L116.198 64.1548C116.291 64.2481 116.384 64.2947 116.524 64.2947C116.664 64.2947 116.757 64.2481 116.851 64.1548C117.037 63.9682 117.037 63.6884 116.851 63.5018L116.145 62.7964L116.762 62.1068L117.504 62.8487C117.597 62.942 117.69 62.9887 117.83 62.9887C117.97 62.9887 118.063 62.942 118.157 62.8487C118.343 62.6622 118.343 62.3823 118.157 62.1957L117.378 61.4172L129.376 47.9941L131.335 49.9532L129.41 52.1067C129.355 52.13 129.306 52.1656 129.258 52.2141L127.392 54.313C127.339 54.3663 127.301 54.4273 127.278 54.4914L117.224 65.7406ZM128.419 54.6401L129.695 53.2113L132.709 56.2254C133.549 57.1116 134.995 58.231 137.094 59.6303C136.814 59.7236 136.534 59.8636 136.254 60.0501C135.676 60.4118 135.266 60.914 134.98 61.4691C134.976 61.477 134.972 61.4851 134.968 61.4931C134.951 61.5265 134.934 61.5601 134.918 61.5938C134.895 61.6417 134.873 61.69 134.853 61.7389C134.838 61.772 134.824 61.805 134.81 61.8383C134.809 61.8431 134.807 61.848 134.805 61.8528C134.79 61.8893 134.775 61.9258 134.762 61.9625C134.497 61.5739 134.242 61.2072 133.997 60.8618L134.622 60.2367C134.808 60.0502 134.808 59.7703 134.622 59.5837C134.435 59.3972 134.155 59.3972 133.969 59.5837L133.449 60.1037C133.255 59.8407 133.068 59.5926 132.887 59.3593L133.316 58.9307C133.502 58.7441 133.502 58.4643 133.316 58.2777C133.129 58.0911 132.849 58.0911 132.663 58.2777L132.307 58.6337C131.964 58.2206 131.648 57.8689 131.357 57.578L128.419 54.6401ZM140.919 63.9682L139.939 62.289C139.846 62.1491 139.706 62.0558 139.566 62.0558H139.333C138.26 61.9625 137.28 62.5689 136.814 63.5017L136.721 63.7349C136.627 63.8749 136.627 64.0148 136.721 64.1547L137.747 65.9272C137.187 65.8339 136.674 65.554 136.254 65.1342C135.782 64.6231 135.477 63.9793 135.449 63.2869C135.457 63.2528 135.461 63.2162 135.461 63.1752C135.461 62.5843 135.649 62.0311 135.976 61.5625C136.177 61.283 136.428 61.0383 136.721 60.8431C137.187 60.5166 137.7 60.3767 138.26 60.3767C138.82 60.3767 139.379 60.5632 139.846 60.8898C140.825 61.5894 141.245 62.8487 140.919 63.9682Z" fill="#E3B873"/>
</g>
<defs>
<clipPath id="clip0_0_1">
<rect width="1440" height="7499" fill="white" transform="translate(-590 -2643)"/>
</clipPath>
</defs>
</svg>
